<?xml version="1.0" encoding="utf-8"?>
<svg viewBox="8478 10539 3063 3063" style="shape-rendering:geometricPrecision; text-rendering:geometricPrecision; image-rendering:optimizeQuality; fill-rule:evenodd; clip-rule:evenodd" xmlns="http://www.w3.org/2000/svg">
  <g>
    <path fill="currentColor" d="M8997 10539l2024 0c286,0 520,233 520,519l0 2024c0,286 -234,520 -520,520l-2024 0c-285,0 -519,-234 -519,-520l0 -2024c0,-286 234,-519 519,-519zm108 316c52,-34 82,-46 145,-49 70,0 126,33 166,70 8,8 17,17 26,28 18,21 31,40 39,54 1,2 3,4 4,6l1 1c30,46 67,68 111,-24 9,-20 32,-40 64,-52 29,-12 47,-5 88,-1 57,6 125,-7 112,-87l0 0c40,19 70,48 90,79 58,87 31,134 46,196 25,95 46,169 -13,239 -42,50 -86,75 -178,129 -8,4 -14,13 -20,23 19,18 38,36 57,54l2 1 1 2 0 0 2 2 2 2 2 2 0 0 2 1 2 2 2 2 1 1 1 1 1 1 1 1 1 1 2 2 0 0 2 2 2 1 2 2 1 1 1 1 2 2 0 0 1 1 2 2 2 2 1 1 1 1 86 81c5,5 13,4 19,5 38,3 76,7 114,10l1 0 1 0 8 1 0 0 8 1 1 0 2 0 2 0 0 0 3 1 1 0 2 0 3 0 2 0 2 0 1 1 2 0 2 0 1 0 3 0 0 0 2 0 3 1 0 0 2 0 2 0 1 0 3 0 0 0 2 1 3 0 0 0 3 0 1 0 1 0 3 0 1 0 2 1 2 0 0 0 1 0 3 0 2 0 3 1 2 0 2 0 0 0 3 0 2 0 1 0 2 1 1 0 2 0 3 0 0 0 2 0 2 0 1 0 3 1 0 0 2 0 3 0 0 0 3 0 1 0 1 0 3 1 1 0 2 0 2 0 0 0 3 0 1 0 1 0 3 1 1 0 2 0 2 0 0 0 3 0 2 0 3 0 1 0 2 1 3 0 0 0 2 0 2 0 1 0 3 0 0 0 2 0 3 1c31,-21 69,-29 106,-24 23,3 48,10 65,26 7,6 8,17 3,24 -12,18 -35,20 -54,23 -28,3 -54,17 -81,23 -10,3 -21,4 -31,5l-1 0 0 1 0 0 0 0 0 0 -1 0 0 0 0 0 0 0 -1 0 0 0 0 0 0 0 -1 0 0 0 0 0 0 0 -1 0 0 0 0 0 0 0 0 0 -1 0 0 0 0 0 0 0 -1 0 0 0 0 0 -1 0 0 0 -1 0 0 0 0 0 0 0 -1 0 0 0 0 0 0 0 0 0 -1 0 0 0 0 0 0 0 -1 0 0 1 0 0 0 0 -1 0 0 0 0 0 0 0 -1 0 0 0 0 0 0 0 0 0 -1 0 0 0 0 0 0 0 -1 0 0 0 0 0 0 0 0 0 -1 0 0 0 0 0 0 0 -1 0 0 0 0 0 0 0 -1 0 0 0 0 0 0 0 0 0 -1 0 0 0 0 0 0 0 -1 0 0 0 -2 0 -3 1 0 0 -2 0 -2 0 -1 0 -2 0 -2 0 -1 0 -2 1 -1 0 -2 0 -2 0 -1 0 -1 0 -3 0 0 0 -2 1 -3 0 0 0 -2 0 -2 0 -1 0 -2 0 -2 0 -1 0 -2 1 -1 0 -1 0 -3 0 -1 0 -1 0 -3 0 -1 0 -1 1 -3 0 0 0 -2 0 -3 0 0 0 -2 0 -2 1 0 0 -3 0 -2 0 0 0 -3 0 -1 0 -1 0 -3 1 -1 0 -1 0 -3 0 0 0 -2 0 -2 0 -1 0 -2 0 -2 1 0 0 -3 0 -2 0 0 0 -3 0 -2 0 0 0 -3 1 -1 0 -1 0 -2 0 -2 0 -1 0 -2 0 -1 0 -2 1 -2 0 -1 0 -2 0 -2 0 0 0 -3 0 -2 1 0 0 -2 0 -2 0 -1 0 -2 0 -2 0 -1 0 -2 1 -1 0 -2 0 -2 0 -1 0 -2 0 -2 0 -1 0 -1 0c-45,4 -90,7 -135,11 -17,1 -37,3 -52,-8 -48,-38 -97,-74 -145,-110l-64 -45c36,90 74,206 89,234 23,42 49,82 84,116 29,32 77,89 106,121 121,167 182,335 236,542 83,-124 177,-208 261,-331 4,-15 8,-30 10,-45 9,-53 5,-108 19,-160 14,-50 40,-97 75,-137 35,-39 83,-68 136,-77 58,-10 119,3 172,28 46,21 84,59 105,104 18,39 26,83 25,125 -6,-14 -15,-28 -24,-40 -24,-29 -55,-52 -90,-64 -30,-11 -66,-8 -93,9 -40,23 -68,62 -89,103 -40,71 -61,114 -153,204l-1 0 1 1c-53,100 -269,571 -346,601 -13,5 -28,10 -44,10 -41,0 -64,-32 -87,-69 -16,-25 -32,-51 -47,-76 -72,-120 -149,-274 -206,-394l-29 10c48,122 108,282 147,415l0 0 1 4c18,62 63,113 129,125l0 0c22,4 46,10 71,19 140,57 242,133 382,190 34,-11 70,-13 105,-12 57,2 113,16 168,31 70,16 149,23 214,-14 60,-34 94,-96 131,-151 -26,91 -51,184 -98,267 -30,52 -61,72 -116,99 -56,27 -121,28 -181,15 -52,-9 -102,-30 -143,-63 -36,-29 -71,-61 -117,-73l0 0c-108,-31 -601,-144 -656,-214l0 -1 -2 -2c-1,-2 -2,-3 -3,-5l-137 -217c-116,-180 -197,-340 -237,-542 -5,-41 -14,-113 -19,-155 0,-48 -11,-96 -31,-140 -15,-35 -79,-156 -108,-222l-16 79c-6,54 -12,107 -17,160 -2,20 -9,38 -17,55l0 0 0 1 0 0 0 0 -1 0 0 0 0 1 0 0 0 0 0 0 0 0 0 1 0 0 0 0 0 0 0 0 -1 1 0 0 0 0 0 0 0 0 0 0 0 1 0 0 0 0 0 0 0 0 -1 1 0 0 0 0 0 0 0 0 0 1 0 0 0 0 0 0 0 0 0 1 -1 0 0 0 0 0 0 0 0 1 0 0 0 0 0 0 0 0 0 0 0 1 0 0 -1 0 0 0 0 0 0 1 0 0 0 0 0 0 0 0 0 1 0 0 0 0 0 0 0 0 -1 1 0 0 0 0 0 0 0 0 0 1 0 0 0 0 0 0 0 0 0 0 -1 1 0 0 0 0 0 0 -2 4 0 1 -1 3 -1 1 -1 3 -1 1 -1 3 -1 2 -1 1 -1 3 0 1 -2 3 0 1 -2 3 0 1 -2 3 0 1 -2 3 0 1 -1 3 -1 1 -1 3 -1 1 -1 2 -1 2 -1 2 -1 3 -1 1 -1 3 -1 0 -2 4 0 0 -1 4 -1 0 -1 4 -1 1 -1 2 -1 2 -1 2 -1 2 -1 2 -1 2 -1 1 -1 3 -3 4 0 1 -2 3 0 1 -2 3 0 1 -2 3 0 1 -2 2 0 2 -2 2 -1 2 -1 2 -1 2 -2 5 0 0 -2 4 0 0 -2 3 -1 1 -1 3 -1 1 -1 3 -1 1 -1 2 -2 2 -1 2 -1 2 -2 4 -1 1 -1 4 -1 0 -2 4 0 0 -2 3 0 1 -2 3 0 1 -2 2 -1 2 -2 4 -1 2 -1 2 -1 1 -2 3 0 1 -2 3 0 0 -2 4 0 1 -2 3 -1 1 -1 2 -1 2 -1 2 -1 2 -1 1 -2 3 -1 1 -1 3 -1 1 -2 3 0 0 -2 4 0 0 -2 3 0 1 -2 3 -1 1 -1 3 -1 1 -1 2c-6,10 -12,21 -18,31 -15,25 -36,46 -58,66 -16,15 -26,37 -43,52 -10,8 -28,15 -38,3 -7,-11 -7,-25 -6,-38 4,-49 32,-97 75,-121 6,-4 14,-6 15,-14l5 -16 0 0 1 -2 1 -2 0 -1 1 -3 0 -1 1 -3 0 0 3 -7 0 -1 1 -3 0 0 1 -4 0 0 1 -3 0 -1 1 -3 1 -1 1 -2 0 -2 1 -2 0 -1 1 -3 0 -1 1 -2 1 -2 0 -2 1 -2 0 -1 1 -3 1 -1 1 -3 0 -1 1 -3 0 0 1 -4 0 0 1 -3 0 0 1 -4 1 0 1 -3 0 -1 1 -3 0 -1 1 -3 0 -1 1 -2 1 -2 0 -2 1 -2 1 -1 0 -2 1 -2 1 -2 0 -1 1 -3 0 -1 2 -7 0 0 2 -4 0 0 1 -3 0 -1 1 -3 0 -1 1 -3 0 0 1 -3 1 -1 0 -3 1 -1 1 -4 1 -2 0 -2 1 -1 1 -3 0 -1 1 -3 0 -1 1 -2 1 -1 1 -3 0 -1 1 -3 0 0 1 -4 0 0 1 -3 0 -1 1 -3 1 -1 1 -3 0 -1 1 -2 0 -2 1 -2 0 -1 1 -2 1 -2 0 -2 1 -2 0 -1 1 -3 1 -1 1 -3 0 -1 1 -3 0 0 1 -4 0 0 11 -34c4,-11 9,-22 9,-34 0,-31 0,-62 0,-94l0 0 -1 -253c2,-49 25,-97 61,-131l-110 -669zm110 669l2 -2 0 -1c10,-9 20,-16 31,-23 5,-3 9,-5 14,-8 -18,-12 -34,-26 -49,-42 -20,-21 -36,-45 -49,-72l0 0c-114,-22 -205,-185 -184,-265 -1,-23 -10,-84 23,-131 25,-39 40,-81 102,-125l110 669zm20 -388l50 -22c2,-17 16,-29 32,-37 20,-10 60,-23 83,-15 1,1 2,1 2,1l3 -1 38 -17c-7,-16 -17,-31 -28,-45 -19,-21 -41,-39 -66,-52l-1 0c-15,-6 -31,-11 -48,-15l0 0c-13,-2 -37,-6 -49,3l0 0 0 0 0 0 0 0 0 0 0 0 -1 1 0 0 0 0 0 0 0 0 0 0c-1,1 -1,1 -1,1l0 0 0 0c-42,9 -98,95 -107,175 -2,20 -6,39 -11,56 15,-16 39,-29 55,-35 17,-6 36,-8 49,2zm220 -62l-26 12 -14 6c-3,30 -40,51 -63,61 -20,7 -43,8 -57,-9l-44 19c3,22 -14,39 -33,48 -23,11 -64,23 -87,5l-21 9c-7,15 -11,24 -8,27 11,14 21,27 34,40l0 1c15,15 31,29 48,42l0 0 2 1c12,8 24,15 38,22 23,12 48,20 75,23 47,1 88,-18 123,-54l-1 1c15,-21 26,-44 33,-68l1 0 0 -2 0 0 1 -2c12,-42 14,-83 10,-126l0 0c-2,-19 -6,-38 -11,-56z"/>
  </g>
</svg>