<?xml version="1.0" encoding="utf-8"?>
<svg viewBox="14212.775 2332 2370.225 3063.019" style="shape-rendering:geometricPrecision; text-rendering:geometricPrecision; image-rendering:optimizeQuality; fill-rule:evenodd; clip-rule:evenodd" xmlns="http://www.w3.org/2000/svg">
  <path fill="currentColor" d="M 14690 5212 C 14683 5247 14668 5280 14645 5310 C 14565 5415 14368 5394 14220 5392 C 14221 5312 14185 5124 14265 5019 C 14287 4990 14314 4968 14345 4952 C 14361 5030 14392 5115 14403 5185 L 14419 5288 L 14516 5251 C 14534 5244 14564 5239 14583 5236 C 14619 5229 14655 5222 14690 5212 Z M 15492 2332 C 16093 2332 16581 2820 16581 3422 C 16581 3476 16581 3530 16581 3585 C 16581 3618 16581 3652 16581 3685 L 16581 3689 C 16581 4146 16300 4537 15902 4699 L 15902 4713 C 15902 5090 16206 5394 16583 5394 L 15492 5394 L 14401 5394 C 14777 5394 15082 5090 15082 4713 L 15081 4699 C 15034 4680 14989 4658 14945 4632 C 14892 4725 14763 4797 14667 4861 C 14623 4795 14486 4661 14492 4529 C 14495 4472 14518 4421 14553 4381 C 14593 4437 14638 4480 14677 4533 L 14727 4600 L 14795 4550 L 14809 4539 C 14561 4339 14402 4033 14402 3689 C 14402 3659 14402 3628 14402 3597 C 14402 3539 14402 3480 14402 3422 C 14402 2820 14890 2332 15492 2332 Z M 14889 4812 L 14890 4817 C 14910 4901 14875 4978 14827 5042 C 14753 5141 14549 5148 14485 5173 C 14467 5052 14414 4931 14418 4859 C 14421 4811 14439 4765 14467 4728 L 14469 4732 C 14508 4798 14557 4847 14597 4908 L 14644 4977 L 14713 4931 C 14766 4895 14830 4857 14889 4812 Z M 15492 2962 C 15911 2962 16276 3065 16458 3216 C 16369 2799 15881 2600 15492 2600 C 15102 2600 14614 2799 14525 3216 C 14707 3065 15072 2962 15492 2962 Z M 16479 3640 C 16306 3814 15929 3953 15492 3953 C 15054 3953 14677 3814 14504 3640 L 14504 3689 C 14504 4240 14984 4511 15492 4511 C 15999 4511 16479 4240 16479 3689 L 16479 3640 Z M 15384 3329 L 15343 3433 L 15341 3438 L 15341 3438 L 15253 3663 C 15235 3709 15176 3745 15121 3733 L 14787 3660 C 14732 3648 14710 3609 14718 3560 L 14769 3234 C 14775 3198 14815 3176 14858 3168 C 15070 3117 15290 3094 15492 3100 C 15693 3094 15913 3117 16125 3168 C 16168 3176 16208 3198 16214 3234 L 16266 3564 C 16274 3613 16252 3652 16197 3663 L 15862 3733 C 15807 3745 15748 3709 15730 3663 L 15642 3438 L 15642 3438 L 15639 3430 L 15599 3329 C 15579 3291 15551 3263 15499 3259 L 15492 3259 L 15484 3259 C 15432 3263 15404 3291 15384 3329 Z"/>
</svg>