<?xml version="1.0" encoding="utf-8"?>
<svg viewBox="13866 6516 3063 3072" style="shape-rendering:geometricPrecision; text-rendering:geometricPrecision; image-rendering:optimizeQuality; fill-rule:evenodd; clip-rule:evenodd" xmlns="http://www.w3.org/2000/svg">
  <path fill="currentColor" d="M 16385 7076 C 16586 7284 16767 7516 16929 7769 C 16455 8159 16127 8169 15755 8138 C 15647 8202 15583 8224 15476 8289 C 15353 8487 15308 8606 15215 8703 C 15103 8821 15004 8837 14924 8910 C 14885 8969 14849 9031 14813 9093 L 14813 9093 C 14705 9268 14571 9422 14398 9548 C 14373 9565 14347 9577 14319 9588 C 14063 9544 13866 9319 13866 9051 L 13866 8996 C 13996 8829 14152 8699 14329 8597 L 14329 8597 C 14391 8563 14454 8528 14514 8490 C 14589 8412 14608 8314 14728 8205 C 14828 8115 14948 8072 15149 7955 C 15217 7849 15240 7785 15307 7679 C 15285 7307 15303 6980 15705 6516 C 15955 6684 16182 6870 16385 7076 Z M 16386 9056 C 16355 9056 16330 9081 16330 9112 C 16330 9142 16355 9167 16386 9167 C 16416 9167 16441 9142 16441 9112 C 16441 9081 16416 9056 16386 9056 Z M 16049 8771 C 16018 8771 15994 8796 15994 8827 C 15994 8857 16018 8882 16049 8882 C 16080 8882 16104 8857 16104 8827 C 16104 8796 16080 8771 16049 8771 Z M 16206 8519 C 16175 8519 16150 8544 16150 8574 C 16150 8605 16175 8630 16206 8630 C 16236 8630 16261 8605 16261 8574 C 16261 8544 16236 8519 16206 8519 Z M 16084 9056 C 16034 9056 15994 9097 15994 9146 C 15994 9196 16034 9236 16084 9236 C 16133 9236 16174 9196 16174 9146 C 16174 9097 16133 9056 16084 9056 Z M 16296 8771 C 16246 8771 16206 8812 16206 8861 C 16206 8911 16246 8951 16296 8951 C 16345 8951 16386 8911 16386 8861 C 16386 8812 16345 8771 16296 8771 Z M 14546 7129 C 14577 7129 14602 7153 14602 7184 C 14602 7214 14577 7239 14546 7239 C 14516 7239 14491 7214 14491 7184 C 14491 7153 14516 7129 14546 7129 Z M 14390 7353 C 14420 7353 14445 7378 14445 7408 C 14445 7439 14420 7464 14390 7464 C 14359 7464 14334 7439 14334 7408 C 14334 7378 14359 7353 14390 7353 Z M 14636 7446 C 14686 7446 14726 7487 14726 7536 C 14726 7586 14686 7626 14636 7626 C 14587 7626 14546 7586 14546 7536 C 14546 7487 14587 7446 14636 7446 Z M 14366 7661 C 14416 7661 14456 7701 14456 7750 C 14456 7800 14416 7840 14366 7840 C 14317 7840 14277 7800 14277 7750 C 14277 7701 14317 7661 14366 7661 Z M 14239 9129 L 14282 9166 L 14613 8888 L 14613 8888 L 14613 8888 L 14796 8737 C 14996 8503 15167 8377 15408 8186 C 15479 8079 15490 8032 15562 7926 L 15514 7876 C 15406 7945 15359 7956 15251 8025 C 15054 8261 14923 8429 14684 8623 L 14528 8802 L 14528 8802 L 14528 8802 L 14239 9129 Z M 16194 7264 L 15938 7557 L 15660 7873 C 15643 7860 15627 7845 15611 7829 C 15594 7812 15579 7794 15565 7775 L 15888 7506 L 16188 7257 L 16191 7260 L 16194 7264 Z M 15979 7978 C 15911 7979 15844 7967 15782 7942 C 16001 7862 16208 7759 16401 7628 C 16402 7632 16404 7636 16404 7641 C 16265 7773 16123 7884 15979 7978 Z M 15500 7650 C 15477 7586 15468 7517 15472 7449 C 15568 7309 15682 7172 15816 7038 C 15820 7039 15824 7040 15829 7041 C 15693 7230 15586 7434 15500 7650 Z"/>
</svg>