<?xml version="1.0" encoding="utf-8"?>
<svg viewBox="8478 2333 3063 3061" style="shape-rendering:geometricPrecision; text-rendering:geometricPrecision; image-rendering:optimizeQuality; fill-rule:evenodd; clip-rule:evenodd" xmlns="http://www.w3.org/2000/svg">
  <path fill="currentColor" d="M 8991 2333 L 10006 2333 C 10608 2333 11096 2820 11096 3422 C 11096 3477 11096 3531 11096 3585 C 11096 3619 11096 3652 11096 3686 L 11096 3690 C 11096 4147 10815 4538 10416 4700 L 10416 4714 C 10416 5079 10703 5377 11064 5394 C 11329 5376 11541 5153 11541 4883 L 11541 2845 C 11541 2563 11310 2333 11028 2333 L 10006 2333 C 9404 2333 8917 2820 8917 3422 C 8917 3481 8917 3539 8917 3598 C 8917 3629 8917 3659 8917 3690 C 8917 4034 9076 4340 9324 4539 L 9309 4550 L 9242 4600 L 9192 4533 C 9152 4480 9107 4437 9067 4382 C 9032 4421 9010 4472 9007 4529 C 9000 4661 9137 4795 9181 4862 C 9278 4797 9406 4725 9460 4633 C 9503 4658 9549 4681 9596 4700 L 9596 4714 C 9596 5078 9311 5375 8952 5394 L 8947 5394 C 9035 5388 9115 5369 9159 5311 C 9182 5281 9197 5247 9204 5213 C 9169 5222 9133 5229 9098 5236 C 9078 5240 9048 5244 9030 5251 L 8933 5289 L 8917 5186 C 8906 5116 8875 5030 8859 4953 C 8829 4968 8801 4991 8779 5020 C 8717 5101 8725 5233 8732 5325 C 8580 5235 8478 5071 8478 4883 L 8478 2845 C 8478 2563 8709 2333 8991 2333 Z M 9403 4813 L 9404 4818 C 9425 4901 9390 4978 9342 5042 C 9268 5142 9064 5148 9000 5173 C 8981 5053 8928 4931 8933 4859 C 8936 4811 8953 4766 8981 4729 L 8984 4732 C 9023 4799 9071 4848 9112 4908 L 9158 4978 L 9228 4931 C 9281 4896 9345 4857 9403 4813 Z M 10006 2962 C 10426 2962 10791 3065 10972 3216 C 10884 2800 10396 2601 10006 2601 C 9616 2601 9128 2800 9040 3216 C 9222 3065 9586 2962 10006 2962 Z M 10994 3641 C 10821 3815 10444 3954 10006 3954 C 9569 3954 9192 3815 9018 3641 L 9018 3690 C 9018 4240 9498 4512 10006 4512 C 10514 4512 10994 4240 10994 3690 L 10994 3641 Z M 9899 3330 L 9858 3433 L 9856 3439 L 9856 3439 L 9768 3663 C 9750 3710 9690 3746 9636 3734 L 9301 3660 C 9247 3648 9224 3610 9232 3561 L 9283 3235 C 9289 3198 9330 3177 9373 3169 C 9585 3118 9805 3095 10006 3101 C 10208 3095 10428 3118 10639 3169 C 10683 3177 10723 3198 10729 3235 L 10781 3565 C 10789 3614 10767 3653 10712 3664 L 10376 3734 C 10322 3745 10263 3710 10245 3663 L 10157 3439 L 10156 3439 L 10153 3430 L 10114 3330 C 10094 3292 10066 3264 10014 3260 L 10006 3260 L 9999 3260 C 9946 3264 9919 3291 9899 3330 Z"/>
</svg>