<?xml version="1.0" encoding="utf-8"?>
<svg viewBox="8478 6520 3063 3063" style="shape-rendering:geometricPrecision; text-rendering:geometricPrecision; image-rendering:optimizeQuality; fill-rule:evenodd; clip-rule:evenodd" xmlns="http://www.w3.org/2000/svg">
  <path fill="currentColor" class="fil2" d="M 10792 8797 C 10744 8797 10706 8836 10706 8883 C 10706 8930 10744 8969 10792 8969 C 10839 8969 10877 8930 10877 8883 C 10877 8836 10839 8797 10792 8797 Z M 8997 6520 L 11021 6520 C 11307 6520 11541 6754 11541 7040 L 11541 9064 C 11541 9350 11307 9583 11021 9583 L 8997 9583 C 8980 9583 8944 9581 8909 9576 L 8909 9576 C 8935 9566 8961 9553 8984 9537 C 9149 9417 9277 9270 9379 9104 L 9379 9104 C 9414 9045 9448 8985 9485 8930 C 9562 8860 9656 8844 9762 8732 C 9851 8639 9894 8526 10011 8337 C 10113 8275 10174 8254 10277 8193 C 10631 8223 10944 8213 11395 7841 C 11240 7600 11068 7379 10877 7181 C 10684 6985 10467 6807 10229 6647 C 9847 7089 9829 7401 9851 7756 C 9787 7857 9764 7917 9700 8018 C 9508 8131 9394 8171 9299 8257 C 9184 8361 9167 8455 9094 8529 C 9038 8565 8978 8598 8918 8631 L 8918 8631 C 8750 8728 8601 8852 8478 9012 L 8478 7040 C 8478 6754 8712 6520 8997 6520 Z M 8833 9138 L 8874 9174 L 9189 8909 L 9189 8909 L 9189 8909 L 9363 8764 C 9554 8542 9717 8421 9946 8239 C 10014 8138 10024 8092 10093 7991 L 10047 7944 C 9944 8010 9899 8020 9797 8086 C 9609 8310 9484 8470 9257 8656 L 9108 8826 L 9108 8826 L 9108 8826 L 8833 9138 Z M 10695 7360 L 10451 7639 L 10187 7941 C 10170 7928 10155 7914 10140 7899 C 10124 7883 10109 7865 10096 7847 L 10404 7590 L 10689 7353 L 10692 7356 L 10695 7360 Z M 10490 8040 C 10426 8041 10362 8030 10302 8007 C 10511 7930 10709 7832 10893 7707 C 10894 7711 10894 7715 10895 7719 C 10763 7845 10628 7951 10490 8040 Z M 10034 7728 C 10012 7667 10004 7601 10007 7536 C 10099 7403 10207 7272 10335 7144 C 10339 7145 10343 7147 10347 7148 C 10218 7328 10115 7522 10034 7728 Z M 9126 7231 C 9155 7231 9178 7254 9178 7283 C 9178 7313 9155 7336 9126 7336 C 9096 7336 9073 7313 9073 7283 C 9073 7254 9096 7231 9126 7231 Z M 8976 7445 C 9005 7445 9029 7469 9029 7498 C 9029 7527 9005 7550 8976 7550 C 8947 7550 8924 7527 8924 7498 C 8924 7469 8947 7445 8976 7445 Z M 9211 7534 C 9259 7534 9297 7572 9297 7620 C 9297 7667 9259 7705 9211 7705 C 9164 7705 9126 7667 9126 7620 C 9126 7572 9164 7534 9211 7534 Z M 8954 7738 C 9002 7738 9040 7776 9040 7824 C 9040 7871 9002 7909 8954 7909 C 8907 7909 8869 7871 8869 7824 C 8869 7776 8907 7738 8954 7738 Z M 10877 9069 C 10848 9069 10825 9093 10825 9122 C 10825 9151 10848 9174 10877 9174 C 10906 9174 10930 9151 10930 9122 C 10930 9093 10906 9069 10877 9069 Z M 10557 8797 C 10528 8797 10504 8821 10504 8850 C 10504 8879 10528 8903 10557 8903 C 10586 8903 10610 8879 10610 8850 C 10610 8821 10586 8797 10557 8797 Z M 10706 8557 C 10677 8557 10653 8580 10653 8609 C 10653 8639 10677 8662 10706 8662 C 10735 8662 10759 8639 10759 8609 C 10759 8580 10735 8557 10706 8557 Z M 10590 9069 C 10542 9069 10504 9107 10504 9155 C 10504 9202 10542 9240 10590 9240 C 10637 9240 10675 9202 10675 9155 C 10675 9107 10637 9069 10590 9069 Z"/>
</svg>