<?xml version="1.0" encoding="utf-8"?>
<svg viewBox="3.25 3.25 25.5 25.5" xmlns="http://www.w3.org/2000/svg">
  <g>
    <path fill="currentColor" d="M12,7.75A.75.75,0,0,1,11.25,7V4a.75.75,0,0,1,1.5,0V7A.75.75,0,0,1,12,7.75Z"/>
    <path fill="currentColor" d="M12,28.75a.75.75,0,0,1-.75-.75V25a.75.75,0,0,1,1.5,0v3A.75.75,0,0,1,12,28.75Z"/>
    <path fill="currentColor" d="M16,7.75A.75.75,0,0,1,15.25,7V4a.75.75,0,0,1,1.5,0V7A.75.75,0,0,1,16,7.75Z"/>
    <path fill="currentColor" d="M16,28.75a.75.75,0,0,1-.75-.75V25a.75.75,0,0,1,1.5,0v3A.75.75,0,0,1,16,28.75Z"/>
    <path fill="currentColor" d="M20,7.75A.75.75,0,0,1,19.25,7V4a.75.75,0,0,1,1.5,0V7A.75.75,0,0,1,20,7.75Z"/>
    <path fill="currentColor" d="M20,28.75a.75.75,0,0,1-.75-.75V25a.75.75,0,0,1,1.5,0v3A.75.75,0,0,1,20,28.75Z"/>
    <path fill="currentColor" d="M28,12.75H25a.75.75,0,0,1,0-1.5h3a.75.75,0,0,1,0,1.5Z"/>
    <path fill="currentColor" d="M7,12.75H4a.75.75,0,0,1,0-1.5H7a.75.75,0,0,1,0,1.5Z"/>
    <path fill="currentColor" d="M28,16.75H25a.75.75,0,0,1,0-1.5h3a.75.75,0,0,1,0,1.5Z"/>
    <path fill="currentColor" d="M7,16.75H4a.75.75,0,0,1,0-1.5H7a.75.75,0,0,1,0,1.5Z"/>
    <path fill="currentColor" d="M28,20.75H25a.75.75,0,0,1,0-1.5h3a.75.75,0,0,1,0,1.5Z"/>
    <path fill="currentColor" d="M7,20.75H4a.75.75,0,0,1,0-1.5H7a.75.75,0,0,1,0,1.5Z"/>
    <path fill="currentColor" d="M25,25.75H7A.75.75,0,0,1,6.25,25V7A.75.75,0,0,1,7,6.25H25a.75.75,0,0,1,.75.75V25A.75.75,0,0,1,25,25.75ZM7.75,24.25h16.5V7.75H7.75Z"/>
    <path fill="currentColor" d="M20,20.75H12a.75.75,0,0,1-.75-.75V12a.75.75,0,0,1,.75-.75h8a.75.75,0,0,1,.75.75v8A.75.75,0,0,1,20,20.75Zm-7.25-1.5h6.5v-6.5h-6.5Z"/>
  </g>
</svg>