<?xml version="1.0" encoding="utf-8"?>
<svg viewBox="6.999 6.994 19.001 17.012" xmlns="http://www.w3.org/2000/svg">
  <g transform="matrix(1, 0, 0, 1, 0, -1020.362183)">
    <path d="M 7.34375 7 A 0.50005 0.50005 0 0 0 7 7.5 L 7 20.5 A 0.50005 0.50005 0 0 0 7.5 21 L 14.03125 21 L 14.03125 23 L 12 23 A 0.50005 0.50005 0 0 0 11.84375 23 A 0.50606671 0.50606671 0 1 0 12 24 L 21 24 A 0.50005 0.50005 0 1 0 21 23 L 19 23 L 19 21 L 25.5 21 A 0.50005 0.50005 0 0 0 26 20.5 L 26 7.5 A 0.50005 0.50005 0 0 0 25.5 7 L 7.5 7 A 0.50005 0.50005 0 0 0 7.34375 7 z M 8 8 L 25 8 L 25 20 L 8 20 L 8 8 z M 20.34375 9 A 0.50005 0.50005 0 0 0 20 9.40625 L 19.0625 15 L 18 15 A 0.50005 0.50005 0 0 0 17.5625 15.28125 L 16.6875 17.0625 L 15 10.375 A 0.50005 0.50005 0 0 0 14.03125 10.375 L 12.4375 16.6875 L 12 15.34375 A 0.50005 0.50005 0 0 0 11.53125 15 L 9.53125 15 A 0.50005 0.50005 0 1 0 9.53125 16 L 11.15625 16 L 12.03125 18.65625 A 0.50005 0.50005 0 0 0 13 18.59375 L 14.5 12.53125 L 16.03125 18.59375 A 0.50005 0.50005 0 0 0 16.96875 18.71875 L 18.3125 16 L 19.5 16 A 0.50005 0.50005 0 0 0 20 15.5625 L 20.5 12.5625 L 21 15.5625 A 0.50005 0.50005 0 0 0 21.5 16 L 23.5 16 A 0.50005 0.50005 0 1 0 23.5 15 L 21.9375 15 L 21 9.40625 A 0.50005 0.50005 0 0 0 20.34375 9 z M 15.03125 21 L 18 21 L 18 22.96875 L 15.03125 22.96875 L 15.03125 21 z " transform="translate(0,1020.3622)" fill="currentColor"/>
  </g>
</svg>