<?xml version="1.0" encoding="utf-8"?>
<svg viewBox="1 6.149 64 53.701" xmlns="http://www.w3.org/2000/svg">
  <path fill="currentColor" stroke="currentColor" d="M60.4814,15.8916H12.6562v-3.748c0-3.3057-2.6934-5.9941-6.0029-5.9941H1.75c-0.4141,0-0.75,0.3359-0.75,0.75v3.7617   c0,0.4141,0.3359,0.75,0.75,0.75h4.9033c0.4053,0,0.7344,0.3281,0.7344,0.7324v46.957c0,0.4141,0.3359,0.75,0.75,0.75h3.7686   c0.4141,0,0.75-0.3359,0.75-0.75v-6.8438h18.917v4.2539c0,0.9482,0.7432,1.6904,1.6924,1.6904h23.5137   c0.9336,0,1.6924-0.7588,1.6924-1.6904v-4.2539h2.0098c2.4912,0,4.5186-2.0244,4.5186-4.5117V20.4043   C65,17.916,62.9727,15.8916,60.4814,15.8916z M12.6562,34.8203h6.2344c1.2627,0,2.29,1.0273,2.29,2.29v4.04   c0,1.2627-1.0273,2.29-2.29,2.29h-6.2344V34.8203z M8.8877,58.3506v-46.207c0-1.2314-1.002-2.2324-2.2344-2.2324H2.5V7.6494h4.1533   c2.4834,0,4.5029,2.0156,4.5029,4.4941c-0.01-0.5561,0,46.207,0,46.207H8.8877z M56.9717,56.5107   c0,0.1084-0.083,0.1904-0.1924,0.1904h-1.9307v-2.415c0-0.4141-0.3359-0.75-0.75-0.75s-0.75,0.3359-0.75,0.75v2.415h-2.1309v-2.415   c0-0.4141-0.3359-0.75-0.75-0.75s-0.75,0.3359-0.75,0.75v2.415h-2.1299v-2.415c0-0.4141-0.3359-0.75-0.75-0.75   s-0.75,0.3359-0.75,0.75v2.415H43.957v-2.415c0-0.4141-0.3359-0.75-0.75-0.75s-0.75,0.3359-0.75,0.75v2.415h-2.1309v-2.415   c0-0.4141-0.3359-0.75-0.75-0.75s-0.75,0.3359-0.75,0.75v2.415h-2.1299v-2.415c0-0.4141-0.3359-0.75-0.75-0.75   s-0.75,0.3359-0.75,0.75v2.415h-1.9307c-0.1133,0-0.1924-0.0781-0.1924-0.1904v-4.2539h23.8984V56.5107z M63.5,47.7451   c0,1.6611-1.3545,3.0117-3.0186,3.0117c-14.2647,0-22.8922,0-47.8252,0v-5.8164h6.2344c2.0898,0,3.79-1.7002,3.79-3.79v-4.04   c0-2.0898-1.7002-3.79-3.79-3.79h-6.2344V17.3916h47.8252c1.6641,0,3.0186,1.3516,3.0186,3.0127V47.7451z"/>
  <path fill="currentColor" stroke="currentColor" d="M50.3623,44.4092c-0.4141,0-0.75,0.3359-0.75,0.75v2.6006c0,0.4141,0.3359,0.75,0.75,0.75s0.75-0.3359,0.75-0.75v-2.6006   C51.1123,44.7451,50.7764,44.4092,50.3623,44.4092z"/>
  <path fill="currentColor" stroke="currentColor" d="M50.3623,23.7393c0.4141,0,0.75-0.3359,0.75-0.75v-2.5996c0-0.4141-0.3359-0.75-0.75-0.75s-0.75,0.3359-0.75,0.75v2.5996   C49.6123,23.4033,49.9482,23.7393,50.3623,23.7393z"/>
  <path fill="currentColor" stroke="currentColor" d="M45.0225,44.4092c-0.4141,0-0.75,0.3359-0.75,0.75v2.6006c0,0.4141,0.3359,0.75,0.75,0.75s0.75-0.3359,0.75-0.75v-2.6006   C45.7725,44.7451,45.4365,44.4092,45.0225,44.4092z"/>
  <path fill="currentColor" stroke="currentColor" d="M45.0225,23.7393c0.4141,0,0.75-0.3359,0.75-0.75v-2.5996c0-0.4141-0.3359-0.75-0.75-0.75s-0.75,0.3359-0.75,0.75v2.5996   C44.2725,23.4033,44.6084,23.7393,45.0225,23.7393z"/>
  <path fill="currentColor" stroke="currentColor" d="M39.6719,44.4092c-0.4141,0-0.75,0.3359-0.75,0.75v2.6006c0,0.4141,0.3359,0.75,0.75,0.75s0.75-0.3359,0.75-0.75v-2.6006   C40.4219,44.7451,40.0859,44.4092,39.6719,44.4092z"/>
  <path fill="currentColor" stroke="currentColor" d="M39.6719,23.7393c0.4141,0,0.75-0.3359,0.75-0.75v-2.5996c0-0.4141-0.3359-0.75-0.75-0.75s-0.75,0.3359-0.75,0.75v2.5996   C38.9219,23.4033,39.2578,23.7393,39.6719,23.7393z"/>
  <path fill="currentColor" stroke="currentColor" d="M33.9424,38.6689H31.332c-0.4141,0-0.75,0.3359-0.75,0.75s0.3359,0.75,0.75,0.75h2.6104c0.4141,0,0.75-0.3359,0.75-0.75   S34.3564,38.6689,33.9424,38.6689z"/>
  <path fill="currentColor" stroke="currentColor" d="M58.7119,38.6689h-2.6094c-0.4141,0-0.75,0.3359-0.75,0.75s0.3359,0.75,0.75,0.75h2.6094c0.4141,0,0.75-0.3359,0.75-0.75   S59.126,38.6689,58.7119,38.6689z"/>
  <path fill="currentColor" stroke="currentColor" d="M33.9424,33.3193H31.332c-0.4141,0-0.75,0.3359-0.75,0.75s0.3359,0.75,0.75,0.75h2.6104c0.4141,0,0.75-0.3359,0.75-0.75   S34.3564,33.3193,33.9424,33.3193z"/>
  <path fill="currentColor" stroke="currentColor" d="M58.7119,33.3193h-2.6094c-0.4141,0-0.75,0.3359-0.75,0.75s0.3359,0.75,0.75,0.75h2.6094c0.4141,0,0.75-0.3359,0.75-0.75   S59.126,33.3193,58.7119,33.3193z"/>
  <path fill="currentColor" stroke="currentColor" d="M33.9424,27.9795H31.332c-0.4141,0-0.75,0.3359-0.75,0.75s0.3359,0.75,0.75,0.75h2.6104c0.4141,0,0.75-0.3359,0.75-0.75   S34.3564,27.9795,33.9424,27.9795z"/>
  <path fill="currentColor" stroke="currentColor" d="M58.7119,27.9795h-2.6094c-0.4141,0-0.75,0.3359-0.75,0.75s0.3359,0.75,0.75,0.75h2.6094c0.4141,0,0.75-0.3359,0.75-0.75   S59.126,27.9795,58.7119,27.9795z"/>
  <path fill="currentColor" stroke="currentColor" d="M51.3359,25.2373H38.708c-1.3887,0-2.5186,1.1299-2.5186,2.5186v12.6367c0,1.3887,1.1299,2.5186,2.5186,2.5186h12.6279   c1.3896,0,2.5195-1.1299,2.5195-2.5186V27.7559C53.8555,26.3672,52.7256,25.2373,51.3359,25.2373z M52.3555,40.3926   c0,0.5615-0.457,1.0186-1.0195,1.0186H38.708c-0.5615,0-1.0186-0.457-1.0186-1.0186V27.7559c0-0.5615,0.457-1.0186,1.0186-1.0186   h12.6279c0.5625,0,1.0195,0.457,1.0195,1.0186V40.3926z"/>
</svg>