<?xml version="1.0" encoding="utf-8"?>
<svg viewBox="22 15 56 71" xmlns="http://www.w3.org/2000/svg">
  <path fill="currentColor" d="M50,15c-15.5,0-28,4.9-28,11v9c0,2,1.4,3.9,3.8,5.5C23.4,42.1,22,44,22,46v9c0,2,1.4,3.9,3.8,5.5C23.4,62.1,22,64,22,66v9   c0,6.1,12.5,11,28,11s28-4.9,28-11v-9c0-2-1.4-3.9-3.8-5.5C76.6,58.9,78,57,78,55v-9c0-2-1.4-3.9-3.8-5.5C76.6,38.9,78,37,78,35v-9   C78,19.9,65.5,15,50,15z M74,75c0,0.6-1.4,2.4-5.7,4.1C63.6,80.9,56.9,82,50,82s-13.6-1.1-18.3-2.9C27.4,77.4,26,75.6,26,75v-3.3   c4.9,3.2,13.8,5.3,24,5.3c10.2,0,19.1-2.1,24-5.3V75z M68.3,70.1C63.6,71.9,56.9,73,50,73c-6.9,0-13.6-1.1-18.3-2.9   C27.4,68.4,26,66.6,26,66c0-0.5,1-1.9,4-3.3c5.1,2,12.2,3.3,20,3.3c7.8,0,14.9-1.3,20-3.3c3,1.4,4,2.8,4,3.3   C74,66.6,72.6,68.4,68.3,70.1z M74,55c0,0.6-1.4,2.4-5.7,4.1C63.6,60.9,56.9,62,50,62s-13.6-1.1-18.3-2.9C27.4,57.4,26,55.6,26,55   v-3.3c4.9,3.2,13.8,5.3,24,5.3c10.2,0,19.1-2.1,24-5.3V55z M68.3,50.1C63.6,51.9,56.9,53,50,53c-6.9,0-13.6-1.1-18.3-2.9   C27.4,48.4,26,46.6,26,46c0-0.5,1-1.9,4-3.3c5.1,2,12.2,3.3,20,3.3c7.8,0,14.9-1.3,20-3.3c3,1.4,4,2.8,4,3.3   C74,46.6,72.6,48.4,68.3,50.1z M74,35c0,0.6-1.4,2.4-5.7,4.1C63.6,40.9,56.9,42,50,42s-13.6-1.1-18.3-2.9C27.4,37.4,26,35.6,26,35   v-3.3c4.9,3.2,13.8,5.3,24,5.3c10.2,0,19.1-2.1,24-5.3V35z M68.3,30.1C63.6,31.9,56.9,33,50,33c-6.9,0-13.6-1.1-18.3-2.9   C27.4,28.4,26,26.6,26,26c0-0.6,1.4-2.4,5.7-4.1C36.4,20.1,43.1,19,50,19c6.9,0,13.6,1.1,18.3,2.9c4.3,1.7,5.7,3.5,5.7,4.1   C74,26.6,72.6,28.4,68.3,30.1z"/>
</svg>