<?xml version="1.0" encoding="utf-8"?>
<svg viewBox="1.993 1.915 28.008 28.085" xmlns="http://www.w3.org/2000/svg">
  <g>
    <path fill="currentColor" d="M8.27686,15H11.458a.5.5,0,0,0,0-1H8.27686a2.882,2.882,0,0,1-2.61279-1.68164,3.28038,3.28038,0,0,1,.729-3.57471A2.0508,2.0508,0,0,1,8.252,8.25488a.69862.69862,0,0,0,.583-.19531A.69059.69059,0,0,0,9.03613,7.48a2.8695,2.8695,0,0,1,4.81543-2.43652.70925.70925,0,0,0,.59326.18066.69883.69883,0,0,0,.49951-.36133,3.668,3.668,0,0,1,4.52393-1.71338,3.53639,3.53639,0,0,1,2.01807,1.88477,3.72292,3.72292,0,0,1,.16016,2.60889.6961.6961,0,0,0,.93848.84717,2.89163,2.89163,0,0,1,1.56348-.20215,2.83769,2.83769,0,0,1,2.34033,2.05029,2.90148,2.90148,0,0,1-.4873,2.53613A2.85393,2.85393,0,0,1,23.72363,14H20.54248a.5.5,0,0,0,0,1h3.18115a3.8479,3.8479,0,0,0,3.0708-1.51611,3.89284,3.89284,0,0,0,.66016-3.40332,3.84839,3.84839,0,0,0-3.17041-2.78369,3.94423,3.94423,0,0,0-1.54883.0874,4.80267,4.80267,0,0,0-.332-2.74854A4.49208,4.49208,0,0,0,19.80615,2.208a4.66161,4.66161,0,0,0-5.55664,1.86182A3.86925,3.86925,0,0,0,8.01563,7.13428c0,.03467.00049.06885.00146.103a2.77327,2.77327,0,0,0-2.38086.85205,4.29425,4.29425,0,0,0-.88184,4.645A3.8843,3.8843,0,0,0,8.27686,15Z"/>
    <path fill="currentColor" d="M13.5,22h-7a.5.5,0,0,0,0,1H13v6.5a.5.5,0,0,0,1,0v-7A.49971.49971,0,0,0,13.5,22Z"/>
    <path fill="currentColor" d="M25.5,22h-7a.49971.49971,0,0,0-.5.5v7a.5.5,0,0,0,1,0V23h6.5a.5.5,0,0,0,0-1Z"/>
    <path fill="currentColor" d="M26,17.5a.49971.49971,0,0,0-.5-.5H19V10.5a.5.5,0,0,0-1,0v7a.49971.49971,0,0,0,.5.5h7A.49971.49971,0,0,0,26,17.5Z"/>
    <path fill="currentColor" d="M13,10.5V17H6.5a.5.5,0,0,0,0,1h7a.49971.49971,0,0,0,.5-.5v-7a.5.5,0,0,0-1,0Z"/>
    <path fill="currentColor" d="M16,6a1.99579,1.99579,0,0,0-.5,3.929V19.5H5.929a2,2,0,1,0,0,1H16a.49971.49971,0,0,0,.5-.5V9.929A1.99579,1.99579,0,0,0,16,6ZM4,21a1,1,0,1,1,1-1A1.0013,1.0013,0,0,1,4,21ZM16,9a1,1,0,1,1,1-1A1.0013,1.0013,0,0,1,16,9Z"/>
    <path fill="currentColor" d="M28,18a1.99779,1.99779,0,0,0-1.929,1.5H25.5a.5.5,0,0,0,0,1h.571A1.99674,1.99674,0,1,0,28,18Zm0,3a1,1,0,1,1,1-1A1.0013,1.0013,0,0,1,28,21Z"/>
    <path fill="currentColor" d="M21.5,19.5a.5.5,0,0,0,0,1h2a.5.5,0,0,0,0-1Z"/>
    <path fill="currentColor" d="M18.5,19.5a.5.5,0,0,0,0,1h1a.5.5,0,0,0,0-1Z"/>
    <path fill="currentColor" d="M16,28a.49971.49971,0,0,0-.5.5v1a.5.5,0,0,0,1,0v-1A.49971.49971,0,0,0,16,28Z"/>
    <path fill="currentColor" d="M16,24.667a.49971.49971,0,0,0-.5.5v1.6665a.5.5,0,0,0,1,0V25.167A.49971.49971,0,0,0,16,24.667Z"/>
    <path fill="currentColor" d="M16,22a.49971.49971,0,0,0-.5.5v1a.5.5,0,0,0,1,0v-1A.49971.49971,0,0,0,16,22Z"/>
  </g>
</svg>